HIERARCHY
ROOT Hips
{
	OFFSET 0.000000 0.000000 0.000000
	CHANNELS 6 Xposition Yposition Zposition Zrotation Yrotation Xrotation 
	JOINT LHipJoint
	{
		OFFSET 0.000000 0.000000 0.000000
		CHANNELS 3 Zrotation Yrotation Xrotation
		JOINT LeftUpLeg
		{
			OFFSET 1.363060 -1.794630 0.839290
			CHANNELS 3 Zrotation Yrotation Xrotation
			JOINT LeftLeg
			{
				OFFSET 2.448110 -6.726130 0.000000
				CHANNELS 3 Zrotation Yrotation Xrotation
				JOINT LeftFoot
				{
					OFFSET 2.562200 -7.039590 0.000000
					CHANNELS 3 Zrotation Yrotation Xrotation
					JOINT LeftToeBase
					{
						OFFSET 0.157640 -0.433110 2.322550
						CHANNELS 3 Zrotation Yrotation Xrotation
						End Site
						{
							OFFSET 0.000000 0.000000 0.000000
						}
					}
				}
			}
		}
	}
	JOINT RHipJoint
	{
		OFFSET 0.000000 0.000000 0.000000
		CHANNELS 3 Zrotation Yrotation Xrotation
		JOINT RightUpLeg
		{
			OFFSET -1.305520 -1.794630 0.839290
			CHANNELS 3 Zrotation Yrotation Xrotation
			JOINT RightLeg
			{
				OFFSET -2.542530 -6.985550 0.000000
				CHANNELS 3 Zrotation Yrotation Xrotation
				JOINT RightFoot
				{
					OFFSET -2.568260 -7.056230 0.000000
					CHANNELS 3 Zrotation Yrotation Xrotation
					JOINT RightToeBase
					{
						OFFSET -0.164730 -0.452590 2.363150
						CHANNELS 3 Zrotation Yrotation Xrotation
						End Site
						{
							OFFSET 0.000000 0.000000 0.000000
						}
					}
				}
			}
		}
	}
	JOINT LowerBack
	{
		OFFSET 0.000000 0.000000 0.000000
		CHANNELS 3 Zrotation Yrotation Xrotation
		JOINT Spine
		{
			OFFSET 0.028270 2.035590 -0.193380
			CHANNELS 3 Zrotation Yrotation Xrotation
			JOINT Spine1
			{
				OFFSET 0.056720 2.048850 -0.042750
				CHANNELS 3 Zrotation Yrotation Xrotation
				JOINT Neck
				{
					OFFSET 0.000000 0.000000 0.000000
					CHANNELS 3 Zrotation Yrotation Xrotation
					JOINT Neck1
					{
						OFFSET -0.054170 1.746240 0.172020
						CHANNELS 3 Zrotation Yrotation Xrotation
						JOINT Head
						{
							OFFSET 0.104070 1.761360 -0.123970
							CHANNELS 3 Zrotation Yrotation Xrotation
							End Site
							{
								OFFSET 0.000000 0.000000 0.000000
							}
						}
					}
				}
				JOINT LeftShoulder
				{
					OFFSET 0.000000 0.000000 0.000000
					CHANNELS 3 Zrotation Yrotation Xrotation
					JOINT LeftArm
					{
						OFFSET 3.362410 1.200890 -0.311210
						CHANNELS 3 Zrotation Yrotation Xrotation
						JOINT LeftForeArm
						{
							OFFSET 4.983000 -0.000000 -0.000000
							CHANNELS 3 Zrotation Yrotation Xrotation
							JOINT LeftHand
							{
								OFFSET 3.483560 -0.000000 -0.000000
								CHANNELS 3 Zrotation Yrotation Xrotation
								JOINT LeftFingerBase
								{
									OFFSET 0.000000 0.000000 0.000000
									CHANNELS 3 Zrotation Yrotation Xrotation
									JOINT LeftHandIndex1
									{
										OFFSET 0.715260 -0.000000 -0.000000
										CHANNELS 3 Zrotation Yrotation Xrotation
										End Site
										{
											OFFSET 0.000000 0.000000 0.000000
										}
									}
								}
								JOINT LThumb
								{
									OFFSET 0.000000 0.000000 0.000000
									CHANNELS 3 Zrotation Yrotation Xrotation
									End Site
									{
										OFFSET 0.000000 0.000000 0.000000
									}
								}
							}
						}
					}
				}
				JOINT RightShoulder
				{
					OFFSET 0.000000 0.000000 0.000000
					CHANNELS 3 Zrotation Yrotation Xrotation
					JOINT RightArm
					{
						OFFSET -3.136600 1.374050 -0.404650
						CHANNELS 3 Zrotation Yrotation Xrotation
						JOINT RightForeArm
						{
							OFFSET -5.241900 -0.000000 -0.000000
							CHANNELS 3 Zrotation Yrotation Xrotation
							JOINT RightHand
							{
								OFFSET -3.444170 -0.000000 -0.000000
								CHANNELS 3 Zrotation Yrotation Xrotation
								JOINT RightFingerBase
								{
									OFFSET 0.000000 0.000000 0.000000
									CHANNELS 3 Zrotation Yrotation Xrotation
									JOINT RightHandIndex1
									{
										OFFSET -0.622530 -0.000000 -0.000000
										CHANNELS 3 Zrotation Yrotation Xrotation
										End Site
										{
											OFFSET 0.000000 0.000000 0.000000
										}
									}
								}
								JOINT RThumb
								{
									OFFSET 0.000000 0.000000 0.000000
									CHANNELS 3 Zrotation Yrotation Xrotation
									End Site
									{
										OFFSET 0.000000 0.000000 0.000000
									}
								}
							}
						}
					}
				}
			}
		}
	}
}
MOTION
Frames: 7
Frame Time: 0.008333
1.830344 17.341529 -0.684288 11.935054 84.661125 25.086082 -10.371264 2.000488 0.832432 -12.270188 5.377646 -8.966779 -2.909443 -1.144979 3.770685 0.082464 -1.036103 -5.572735 0.016700 0.000000 -33.205200 9.225200 -0.141039 1.824833 6.973782 1.119142 -40.092713 1.485483 -2.059047 32.089925 -1.068205 -3.998557 -2.859962 -0.799300 0.000000 -42.731201 -0.815867 -2.932640 -2.626094 -1.040866 -3.030613 -3.450318 -7.973121 -3.146729 0.165084 10.944977 -3.913068 -4.558940 -4.529320 -0.363608 0.771934 0.000000 0.000000 0.000000 -3.288101 0.266739 2.233085 -59.354927 -21.054211 20.062311 -3.157538 -36.707717 -0.010829 5.013599 -0.211709 -0.015480 -0.146974 0.160237 0.000000 0.000000 0.000000 0.000000 0.000000 0.000000 0.000000 20.684839 -3.305820 1.350917 67.450482 1.845580 -8.021511 3.693856 12.053022 0.009217 0.896420 5.350264 0.038803 0.082562 -0.058781 -0.000000 0.000000 0.000000 0.000000 0.000000 0.000000 0.000000 
2.018943 17.311898 -0.668773 14.907343 84.903143 27.996132 -10.353666 2.052150 0.675043 -12.350861 5.786913 -7.743478 -2.961462 -1.191006 3.125019 0.022840 -1.576890 -5.674213 0.007099 -0.000000 -33.860200 9.181334 -0.081455 2.015205 6.645468 1.097807 -40.168021 1.675713 -1.748237 28.472561 -1.051540 -4.040288 -2.107872 -0.920200 0.000000 -43.436900 -0.867664 -3.140908 -2.602997 -1.037563 -3.231023 -3.415094 -7.950588 -3.336962 0.245605 10.948809 -4.481437 -4.680086 -4.497107 -0.360497 0.742854 0.000000 0.000000 0.000000 -2.990105 -0.013762 2.213828 -58.569133 -22.072637 19.826197 -3.113747 -37.813145 -0.011545 5.103001 -0.334464 -0.021821 -0.150558 0.170599 0.000000 0.000000 0.000000 0.000000 0.000000 0.000000 0.000000 20.620176 -4.010488 1.359109 66.940330 0.963407 -8.338612 3.726573 12.022857 0.009334 0.782326 5.354460 0.033191 0.085674 -0.055790 -0.000000 0.000000 0.000000 0.000000 0.000000 0.000000 0.000000 
2.207926 17.277381 -0.650970 18.511687 85.141700 31.526080 -10.308687 2.101882 0.518411 -12.450599 6.121918 -6.502446 -3.011441 -1.234142 2.543853 -0.028316 -2.069821 -5.809742 0.001599 0.000000 -34.499100 9.171069 -0.013192 2.196654 6.292620 0.984286 -40.206834 1.859102 -1.419419 24.856189 -1.011950 -3.985892 -1.366419 -1.023600 0.000000 -44.031100 -0.952897 -3.353202 -2.567462 -1.040330 -3.432555 -3.374847 -7.918987 -3.527695 0.334028 10.949500 -5.095453 -4.817791 -4.458816 -0.356820 0.709232 0.000000 0.000000 0.000000 -2.670936 -0.277457 2.189017 -57.765785 -23.083219 19.534980 -3.063703 -38.864387 -0.012371 5.198761 -0.437162 -0.027466 -0.153683 0.181018 0.000000 0.000000 0.000000 0.000000 0.000000 0.000000 0.000000 20.535956 -4.756562 1.363439 66.437471 0.125516 -8.610956 3.756397 12.026888 0.009518 0.663335 5.393108 0.027582 0.088795 -0.053049 -0.000000 0.000000 0.000000 0.000000 0.000000 0.000000 0.000000 
2.397303 17.238239 -0.630926 22.714656 85.365786 35.635804 -10.230954 2.152396 0.364109 -12.568617 6.380779 -5.233615 -3.058786 -1.273884 2.017754 -0.070190 -2.503401 -5.978997 -0.000100 0.000000 -35.105300 9.197656 0.071503 2.362432 5.928265 0.770117 -40.213924 2.037153 -1.076770 21.286093 -0.939104 -3.772473 -0.691056 -1.086600 0.000000 -44.515900 -1.064049 -3.566852 -2.514671 -1.047593 -3.633171 -3.330661 -7.878726 -3.717431 0.422439 10.945666 -5.725449 -4.960512 -4.415196 -0.352709 0.674151 0.000000 0.000000 0.000000 -2.332904 -0.539462 2.160725 -56.943410 -24.057449 19.182587 -3.006275 -39.870448 -0.013317 5.299999 -0.517942 -0.032317 -0.156230 0.191453 0.000000 0.000000 0.000000 0.000000 0.000000 0.000000 0.000000 20.429205 -5.513502 1.365794 65.949766 -0.699162 -8.905239 3.784206 12.070016 0.009764 0.565215 5.453305 0.023074 0.091791 -0.050559 -0.000000 0.000000 0.000000 0.000000 0.000000 0.000000 0.000000 
2.587359 17.194887 -0.608812 27.408544 85.565075 40.221186 -10.120894 2.207832 0.215942 -12.699618 6.579446 -3.960430 -3.104529 -1.308494 1.561322 -0.104005 -2.889536 -6.191157 0.001700 0.000000 -35.672800 9.259538 0.177934 2.511980 5.572155 0.456602 -40.209719 2.211976 -0.724174 17.800508 -0.825406 -3.352238 -0.117442 -1.091200 0.000000 -44.933800 -1.190687 -3.778233 -2.451430 -1.057039 -3.830388 -3.284847 -7.830546 -3.904148 0.507565 10.935793 -6.355898 -5.102210 -4.367246 -0.348287 0.639364 0.000000 0.000000 0.000000 -1.984360 -0.804351 2.129348 -56.098901 -24.977954 18.773269 -2.940976 -40.837214 -0.014385 5.406183 -0.577070 -0.036275 -0.158132 0.201837 0.000000 0.000000 0.000000 0.000000 0.000000 0.000000 0.000000 20.300170 -6.265311 1.366494 65.477839 -1.528886 -9.252503 3.811379 12.153017 0.010059 0.505227 5.521490 0.020267 0.094623 -0.048278 -0.000000 0.000000 0.000000 0.000000 0.000000 0.000000 0.000000 
2.778083 17.147822 -0.584985 32.419550 85.721935 45.103592 -9.981147 2.270089 0.077013 -12.841829 6.705773 -2.663364 -3.146180 -1.338108 1.143448 -0.127508 -3.200837 -6.439761 0.006500 -0.000000 -36.193900 9.351557 0.312344 2.635527 5.242774 0.042134 -40.195724 2.385990 -0.366765 14.431073 -0.664892 -2.685166 0.338938 -1.023600 -0.000000 -45.353600 -1.328404 -3.982213 -2.370687 -1.067675 -4.019322 -3.234006 -7.774569 -4.082676 0.596926 10.921041 -7.017293 -5.253385 -4.315019 -0.343440 0.601955 0.000000 0.000000 0.000000 -1.636024 -1.055172 2.091317 -55.232763 -25.867210 18.319991 -2.868697 -41.751868 -0.015547 5.516415 -0.622433 -0.039839 -0.159385 0.212084 -0.000000 0.000000 0.000000 0.000000 0.000000 0.000000 0.000000 20.156752 -7.043105 1.364844 65.003849 -2.316339 -9.553948 3.838237 12.258289 0.010382 0.466928 5.588395 0.018461 0.097446 -0.046074 -0.000000 0.000000 0.000000 0.000000 0.000000 0.000000 0.000000 
2.969706 17.097641 -0.559822 37.544175 85.828057 50.083478 -9.821150 2.340484 -0.047803 -12.989897 6.763243 -1.353157 -3.182925 -1.362389 0.759385 -0.140767 -3.434779 -6.725373 0.013300 -0.000000 -36.675600 9.463131 0.474903 2.731428 4.960995 -0.465805 -40.185885 2.561688 -0.008459 11.197403 -0.457398 -1.759759 0.687983 -0.881900 -0.000000 -45.872600 -1.471512 -4.174573 -2.278469 -1.078584 -4.196388 -3.180524 -7.711616 -4.249819 0.686460 10.899096 -7.692715 -5.407395 -4.259866 -0.338320 0.563793 0.000000 0.000000 0.000000 -1.298443 -1.297645 2.047970 -54.344532 -26.711358 17.823802 -2.789965 -42.616689 -0.016784 5.629030 -0.658759 -0.042910 -0.159953 0.222168 -0.000000 0.000000 0.000000 0.000000 0.000000 0.000000 0.000000 19.999709 -7.829191 1.361588 64.526252 -3.078982 -9.840057 3.865842 12.386102 0.010711 0.462283 5.640137 0.018255 0.100221 -0.043932 -0.000000 0.000000 0.000000 0.000000 0.000000 0.000000 0.000000 
